<svg id="visual" viewBox="0 0 1200 920" width="1200" height="920" xmlns="http://www.w3.org/2000/svg" xmlns:xlink="http://www.w3.org/1999/xlink" version="1.1"><g stroke-width="3" stroke-linejoin="bevel"><path d="M652.7 433.3L630.7 564.7L761 540.7Z" fill="#205a7a" stroke="#FFFFFF"></path><path d="M630.7 564.7L682.7 662.1L761 540.7Z" fill="#081a28" stroke="#FFFFFF"></path><path d="M530.3 564.7L568.3 620.1L630.7 564.7Z" fill="#277297" stroke="#FFFFFF"></path><path d="M630.7 564.7L568.3 620.1L682.7 662.1Z" fill="#1d4e6b" stroke="#FFFFFF"></path><path d="M519.3 430.3L530.3 564.7L630.7 564.7Z" fill="#205a7a" stroke="#FFFFFF"></path><path d="M761 540.7L824 396.3L652.7 433.3Z" fill="#112e42" stroke="#FFFFFF"></path><path d="M525.3 246.9L519.3 430.3L652.7 433.3Z" fill="#19435d" stroke="#FFFFFF"></path><path d="M652.7 433.3L519.3 430.3L630.7 564.7Z" fill="#277297" stroke="#FFFFFF"></path><path d="M682.7 662.1L826 675.1L761 540.7Z" fill="#297ea6" stroke="#FFFFFF"></path><path d="M761 540.7L895.3 424.3L824 396.3Z" fill="#246688" stroke="#FFFFFF"></path><path d="M958.3 507.7L895.3 424.3L761 540.7Z" fill="#081a28" stroke="#FFFFFF"></path><path d="M560.3 788.6L646.7 765.6L568.3 620.1Z" fill="#246688" stroke="#FFFFFF"></path><path d="M568.3 620.1L646.7 765.6L682.7 662.1Z" fill="#00101c" stroke="#FFFFFF"></path><path d="M682.7 662.1L799 804.6L826 675.1Z" fill="#15384f" stroke="#FFFFFF"></path><path d="M826 675.1L958.3 507.7L761 540.7Z" fill="#297ea6" stroke="#FFFFFF"></path><path d="M793 233.9L652.7 433.3L824 396.3Z" fill="#297ea6" stroke="#FFFFFF"></path><path d="M793 233.9L636.7 224.9L652.7 433.3Z" fill="#15384f" stroke="#FFFFFF"></path><path d="M525.3 246.9L428 383.3L519.3 430.3Z" fill="#15384f" stroke="#FFFFFF"></path><path d="M519.3 430.3L391 538.7L530.3 564.7Z" fill="#00101c" stroke="#FFFFFF"></path><path d="M960.3 260.9L824 396.3L895.3 424.3Z" fill="#205a7a" stroke="#FFFFFF"></path><path d="M960.3 260.9L793 233.9L824 396.3Z" fill="#19435d" stroke="#FFFFFF"></path><path d="M428 383.3L391 538.7L519.3 430.3Z" fill="#297ea6" stroke="#FFFFFF"></path><path d="M530.3 564.7L392 664.1L568.3 620.1Z" fill="#1d4e6b" stroke="#FFFFFF"></path><path d="M935.3 770.6L936.3 684.1L826 675.1Z" fill="#297ea6" stroke="#FFFFFF"></path><path d="M826 675.1L936.3 684.1L958.3 507.7Z" fill="#297ea6" stroke="#FFFFFF"></path><path d="M636.7 224.9L525.3 246.9L652.7 433.3Z" fill="#246688" stroke="#FFFFFF"></path><path d="M392 664.1L560.3 788.6L568.3 620.1Z" fill="#15384f" stroke="#FFFFFF"></path><path d="M679.7 920L799 804.6L646.7 765.6Z" fill="#246688" stroke="#FFFFFF"></path><path d="M646.7 765.6L799 804.6L682.7 662.1Z" fill="#277297" stroke="#FFFFFF"></path><path d="M391 538.7L392 664.1L530.3 564.7Z" fill="#277297" stroke="#FFFFFF"></path><path d="M799 804.6L935.3 770.6L826 675.1Z" fill="#1d4e6b" stroke="#FFFFFF"></path><path d="M1087.7 534.7L1056.7 400.3L958.3 507.7Z" fill="#297ea6" stroke="#FFFFFF"></path><path d="M1056.7 400.3L960.3 260.9L895.3 424.3Z" fill="#081a28" stroke="#FFFFFF"></path><path d="M923.3 168.4L802 143.4L793 233.9Z" fill="#0c2435" stroke="#FFFFFF"></path><path d="M793 233.9L802 143.4L636.7 224.9Z" fill="#246688" stroke="#FFFFFF"></path><path d="M636.7 224.9L564.3 91.4L525.3 246.9Z" fill="#297ea6" stroke="#FFFFFF"></path><path d="M958.3 507.7L1056.7 400.3L895.3 424.3Z" fill="#15384f" stroke="#FFFFFF"></path><path d="M1087.7 534.7L958.3 507.7L1067.7 687.1Z" fill="#277297" stroke="#FFFFFF"></path><path d="M1067.7 687.1L958.3 507.7L936.3 684.1Z" fill="#00101c" stroke="#FFFFFF"></path><path d="M1063.7 266.9L923.3 168.4L960.3 260.9Z" fill="#205a7a" stroke="#FFFFFF"></path><path d="M960.3 260.9L923.3 168.4L793 233.9Z" fill="#205a7a" stroke="#FFFFFF"></path><path d="M569.3 920L679.7 920L646.7 765.6Z" fill="#1d4e6b" stroke="#FFFFFF"></path><path d="M799 804.6L821 920L935.3 770.6Z" fill="#00101c" stroke="#FFFFFF"></path><path d="M569.3 920L646.7 765.6L560.3 788.6Z" fill="#297ea6" stroke="#FFFFFF"></path><path d="M701.7 0L631.7 95.4L802 143.4Z" fill="#0c2435" stroke="#FFFFFF"></path><path d="M802 143.4L631.7 95.4L636.7 224.9Z" fill="#15384f" stroke="#FFFFFF"></path><path d="M525.3 246.9L366 237.9L428 383.3Z" fill="#246688" stroke="#FFFFFF"></path><path d="M383 123.4L366 237.9L525.3 246.9Z" fill="#00101c" stroke="#FFFFFF"></path><path d="M278.7 361.3L266.7 542.7L391 538.7Z" fill="#112e42" stroke="#FFFFFF"></path><path d="M391 538.7L266.7 542.7L392 664.1Z" fill="#1d4e6b" stroke="#FFFFFF"></path><path d="M935.3 770.6L1067.7 687.1L936.3 684.1Z" fill="#1d4e6b" stroke="#FFFFFF"></path><path d="M278.7 361.3L391 538.7L428 383.3Z" fill="#205a7a" stroke="#FFFFFF"></path><path d="M297.7 802.6L396 818.6L392 664.1Z" fill="#081a28" stroke="#FFFFFF"></path><path d="M392 664.1L396 818.6L560.3 788.6Z" fill="#246688" stroke="#FFFFFF"></path><path d="M419 920L569.3 920L560.3 788.6Z" fill="#15384f" stroke="#FFFFFF"></path><path d="M631.7 95.4L564.3 91.4L636.7 224.9Z" fill="#0c2435" stroke="#FFFFFF"></path><path d="M366 237.9L278.7 361.3L428 383.3Z" fill="#0c2435" stroke="#FFFFFF"></path><path d="M679.7 920L821 920L799 804.6Z" fill="#15384f" stroke="#FFFFFF"></path><path d="M935.3 770.6L1088.7 808.6L1067.7 687.1Z" fill="#081a28" stroke="#FFFFFF"></path><path d="M1056.7 400.3L1063.7 266.9L960.3 260.9Z" fill="#19435d" stroke="#FFFFFF"></path><path d="M1200 364.3L1063.7 266.9L1056.7 400.3Z" fill="#1d4e6b" stroke="#FFFFFF"></path><path d="M226.7 693.1L297.7 802.6L392 664.1Z" fill="#112e42" stroke="#FFFFFF"></path><path d="M396 818.6L419 920L560.3 788.6Z" fill="#277297" stroke="#FFFFFF"></path><path d="M564.3 91.4L383 123.4L525.3 246.9Z" fill="#112e42" stroke="#FFFFFF"></path><path d="M366 237.9L273.7 227.9L278.7 361.3Z" fill="#15384f" stroke="#FFFFFF"></path><path d="M821 920L949.3 920L935.3 770.6Z" fill="#246688" stroke="#FFFFFF"></path><path d="M297.7 802.6L419 920L396 818.6Z" fill="#19435d" stroke="#FFFFFF"></path><path d="M266.7 542.7L226.7 693.1L392 664.1Z" fill="#19435d" stroke="#FFFFFF"></path><path d="M155.3 654.1L226.7 693.1L266.7 542.7Z" fill="#0c2435" stroke="#FFFFFF"></path><path d="M294.7 137.4L273.7 227.9L366 237.9Z" fill="#297ea6" stroke="#FFFFFF"></path><path d="M105.3 387.3L150.3 553.7L266.7 542.7Z" fill="#00101c" stroke="#FFFFFF"></path><path d="M949.3 920L1088.7 808.6L935.3 770.6Z" fill="#297ea6" stroke="#FFFFFF"></path><path d="M1067.7 687.1L1200 556.7L1087.7 534.7Z" fill="#15384f" stroke="#FFFFFF"></path><path d="M773 0L802 143.4L916.3 0Z" fill="#112e42" stroke="#FFFFFF"></path><path d="M773 0L701.7 0L802 143.4Z" fill="#1d4e6b" stroke="#FFFFFF"></path><path d="M631.7 95.4L701.7 0L564.3 91.4Z" fill="#00101c" stroke="#FFFFFF"></path><path d="M564.3 91.4L496.3 0L383 123.4Z" fill="#19435d" stroke="#FFFFFF"></path><path d="M916.3 0L802 143.4L923.3 168.4Z" fill="#112e42" stroke="#FFFFFF"></path><path d="M1200 683.1L1200 556.7L1067.7 687.1Z" fill="#246688" stroke="#FFFFFF"></path><path d="M1087.7 534.7L1200 364.3L1056.7 400.3Z" fill="#246688" stroke="#FFFFFF"></path><path d="M1200 556.7L1200 364.3L1087.7 534.7Z" fill="#112e42" stroke="#FFFFFF"></path><path d="M1063.7 266.9L1104.7 139.4L923.3 168.4Z" fill="#205a7a" stroke="#FFFFFF"></path><path d="M290.7 0L294.7 137.4L383 123.4Z" fill="#0c2435" stroke="#FFFFFF"></path><path d="M383 123.4L294.7 137.4L366 237.9Z" fill="#15384f" stroke="#FFFFFF"></path><path d="M105.3 387.3L266.7 542.7L278.7 361.3Z" fill="#246688" stroke="#FFFFFF"></path><path d="M105.3 387.3L278.7 361.3L123.3 246.9Z" fill="#1d4e6b" stroke="#FFFFFF"></path><path d="M701.7 0L496.3 0L564.3 91.4Z" fill="#205a7a" stroke="#FFFFFF"></path><path d="M1200 781.6L1200 683.1L1067.7 687.1Z" fill="#15384f" stroke="#FFFFFF"></path><path d="M150.3 553.7L155.3 654.1L266.7 542.7Z" fill="#15384f" stroke="#FFFFFF"></path><path d="M226.7 693.1L160.3 757.6L297.7 802.6Z" fill="#15384f" stroke="#FFFFFF"></path><path d="M1200 282.9L1104.7 139.4L1063.7 266.9Z" fill="#205a7a" stroke="#FFFFFF"></path><path d="M1032.7 0L916.3 0L923.3 168.4Z" fill="#15384f" stroke="#FFFFFF"></path><path d="M1200 364.3L1200 282.9L1063.7 266.9Z" fill="#081a28" stroke="#FFFFFF"></path><path d="M949.3 920L1094.7 920L1088.7 808.6Z" fill="#205a7a" stroke="#FFFFFF"></path><path d="M1088.7 808.6L1200 781.6L1067.7 687.1Z" fill="#15384f" stroke="#FFFFFF"></path><path d="M1200 920L1200 781.6L1088.7 808.6Z" fill="#1d4e6b" stroke="#FFFFFF"></path><path d="M496.3 0L400 0L383 123.4Z" fill="#297ea6" stroke="#FFFFFF"></path><path d="M138.3 920L160.3 757.6L0 802.6Z" fill="#297ea6" stroke="#FFFFFF"></path><path d="M155.3 654.1L160.3 757.6L226.7 693.1Z" fill="#00101c" stroke="#FFFFFF"></path><path d="M297.7 802.6L226.7 920L419 920Z" fill="#0c2435" stroke="#FFFFFF"></path><path d="M123.3 246.9L278.7 361.3L273.7 227.9Z" fill="#297ea6" stroke="#FFFFFF"></path><path d="M150.3 553.7L0 657.1L155.3 654.1Z" fill="#112e42" stroke="#FFFFFF"></path><path d="M1200 0L1032.7 0L1104.7 139.4Z" fill="#246688" stroke="#FFFFFF"></path><path d="M1104.7 139.4L1032.7 0L923.3 168.4Z" fill="#15384f" stroke="#FFFFFF"></path><path d="M160.3 757.6L226.7 920L297.7 802.6Z" fill="#00101c" stroke="#FFFFFF"></path><path d="M101.3 105.4L123.3 246.9L273.7 227.9Z" fill="#0c2435" stroke="#FFFFFF"></path><path d="M101.3 105.4L273.7 227.9L294.7 137.4Z" fill="#246688" stroke="#FFFFFF"></path><path d="M1200 282.9L1200 154.4L1104.7 139.4Z" fill="#19435d" stroke="#FFFFFF"></path><path d="M400 0L290.7 0L383 123.4Z" fill="#081a28" stroke="#FFFFFF"></path><path d="M1094.7 920L1200 920L1088.7 808.6Z" fill="#1d4e6b" stroke="#FFFFFF"></path><path d="M0 657.1L160.3 757.6L155.3 654.1Z" fill="#15384f" stroke="#FFFFFF"></path><path d="M160.3 757.6L138.3 920L226.7 920Z" fill="#0c2435" stroke="#FFFFFF"></path><path d="M105.3 387.3L0 516.7L150.3 553.7Z" fill="#112e42" stroke="#FFFFFF"></path><path d="M0 401.3L0 516.7L105.3 387.3Z" fill="#1d4e6b" stroke="#FFFFFF"></path><path d="M0 284.9L105.3 387.3L123.3 246.9Z" fill="#205a7a" stroke="#FFFFFF"></path><path d="M0 284.9L0 401.3L105.3 387.3Z" fill="#1d4e6b" stroke="#FFFFFF"></path><path d="M0 516.7L0 657.1L150.3 553.7Z" fill="#19435d" stroke="#FFFFFF"></path><path d="M134.3 0L101.3 105.4L294.7 137.4Z" fill="#246688" stroke="#FFFFFF"></path><path d="M1200 154.4L1200 0L1104.7 139.4Z" fill="#277297" stroke="#FFFFFF"></path><path d="M0 99.4L0 284.9L123.3 246.9Z" fill="#246688" stroke="#FFFFFF"></path><path d="M0 657.1L0 802.6L160.3 757.6Z" fill="#246688" stroke="#FFFFFF"></path><path d="M290.7 0L134.3 0L294.7 137.4Z" fill="#19435d" stroke="#FFFFFF"></path><path d="M101.3 105.4L0 99.4L123.3 246.9Z" fill="#246688" stroke="#FFFFFF"></path><path d="M0 0L0 99.4L101.3 105.4Z" fill="#277297" stroke="#FFFFFF"></path><path d="M0 802.6L0 920L138.3 920Z" fill="#277297" stroke="#FFFFFF"></path><path d="M134.3 0L0 0L101.3 105.4Z" fill="#112e42" stroke="#FFFFFF"></path></g></svg>